<?xml version="1.0" standalone="no"?>
<!DOCTYPE svg PUBLIC "-//W3C//DTD SVG 20010904//EN"
 "http://www.w3.org/TR/2001/REC-SVG-20010904/DTD/svg10.dtd">
<svg version="1.0" xmlns="http://www.w3.org/2000/svg"
 width="128.000000pt" height="128.000000pt" viewBox="0 0 128.000000 128.000000"
 preserveAspectRatio="xMidYMid meet">
<metadata>
Created by potrace 1.14, written by Peter Selinger 2001-2017
</metadata>
<g transform="translate(0.000000,128.000000) scale(0.100000,-0.100000)"
fill="#000000" stroke="none">
<path d="M99 1223 c-10 -12 -14 -54 -16 -152 -1 -75 -3 -163 -6 -195 -6 -72 3
-104 47 -176 27 -44 33 -64 31 -99 -2 -51 16 -145 35 -181 14 -26 80 -254 80
-277 0 -7 -10 -13 -22 -13 -35 0 -46 -12 -50 -50 l-3 -35 82 -3 81 -3 7 43 c3
24 11 71 17 106 l10 63 37 -7 c20 -4 37 -8 39 -9 2 -2 4 -25 5 -51 2 -43 -1
-49 -19 -52 -22 -3 -44 -39 -44 -72 0 -23 -6 -22 93 -24 43 -1 82 3 86 9 5 5
16 53 25 105 10 52 19 103 22 112 6 20 146 81 177 76 17 -2 28 -19 48 -73 14
-38 29 -85 32 -102 6 -31 5 -33 -23 -33 -33 0 -41 -9 -47 -56 l-5 -34 86 0
c46 0 87 4 90 9 4 5 7 40 8 78 0 37 3 72 5 76 6 11 63 -49 63 -66 0 -7 -10
-13 -21 -14 -28 -2 -31 -6 -32 -45 l-2 -33 73 -3 c87 -3 104 6 96 52 -10 56
-20 172 -17 212 7 119 5 207 -7 248 -12 43 -11 47 13 75 78 93 68 230 -25 318
-48 46 -174 93 -195 72 -5 -5 -23 -9 -41 -11 -22 -1 -37 -10 -44 -23 -6 -11
-19 -26 -28 -32 -18 -13 -28 -45 -37 -123 -4 -40 -1 -49 23 -73 41 -42 106
-41 144 2 30 34 48 41 77 30 15 -5 24 -20 29 -43 11 -59 3 -67 -50 -51 -43 13
-91 13 -216 0 -30 -3 -78 -1 -108 6 -49 10 -53 13 -47 32 27 86 31 112 23 165
-5 32 -8 114 -8 183 1 103 -2 130 -15 142 -9 10 -23 13 -33 10 -18 -8 -20 -9
-72 -54 -33 -29 -38 -30 -90 -24 -73 9 -65 9 -147 1 -69 -7 -72 -6 -105 22
-39 34 -80 62 -89 62 -4 0 -13 -7 -20 -17z"/>
</g>
</svg>
